<svg width="14" height="14" viewBox="0 0 14 14" fill="none" xmlns="http://www.w3.org/2000/svg">
<g clip-path="url(#clip0_411_2038)">
<path d="M9.62463 1.74927C9.62463 1.5172 9.71682 1.29464 9.88092 1.13055C10.045 0.966455 10.2676 0.874268 10.4996 0.874268H12.2496C12.4817 0.874268 12.7043 0.966455 12.8684 1.13055C13.0324 1.29464 13.1246 1.5172 13.1246 1.74927V12.2493H13.5621C13.6782 12.2493 13.7894 12.2954 13.8715 12.3774C13.9535 12.4595 13.9996 12.5707 13.9996 12.6868C13.9996 12.8028 13.9535 12.9141 13.8715 12.9961C13.7894 13.0782 13.6782 13.1243 13.5621 13.1243H0.437134C0.321102 13.1243 0.209822 13.0782 0.127775 12.9961C0.0457274 12.9141 -0.000366211 12.8028 -0.000366211 12.6868C-0.000366211 12.5707 0.0457274 12.4595 0.127775 12.3774C0.209822 12.2954 0.321102 12.2493 0.437134 12.2493H0.874634V9.62427C0.874634 9.3922 0.966821 9.16964 1.13092 9.00555C1.29501 8.84145 1.51757 8.74927 1.74963 8.74927H3.49963C3.7317 8.74927 3.95426 8.84145 4.11835 9.00555C4.28245 9.16964 4.37463 9.3922 4.37463 9.62427V12.2493H5.24963V6.12427C5.24963 5.8922 5.34182 5.66964 5.50592 5.50555C5.67001 5.34145 5.89257 5.24927 6.12463 5.24927H7.87463C8.1067 5.24927 8.32926 5.34145 8.49335 5.50555C8.65745 5.66964 8.74963 5.8922 8.74963 6.12427V12.2493H9.62463V1.74927ZM10.4996 12.2493H12.2496V1.74927H10.4996V12.2493ZM7.87463 12.2493V6.12427H6.12463V12.2493H7.87463ZM3.49963 12.2493V9.62427H1.74963V12.2493H3.49963Z" fill="white"/>
</g>
<defs>
<clipPath id="clip0_411_2038">
<rect width="14" height="14" fill="white"/>
</clipPath>
</defs>
</svg>
