<svg width="192" height="64" viewBox="0 0 192 64" fill="none" xmlns="http://www.w3.org/2000/svg">
<rect width="192" height="64" rx="4" fill="white" fill-opacity="0.01"/>
<g clip-path="url(#clip0_405_2028)">
<rect width="14" height="14" transform="translate(16 25)" fill="white" fill-opacity="0.01"/>
<g clip-path="url(#clip1_405_2028)">
<path d="M25.6246 26.7493C25.6246 26.5172 25.7168 26.2946 25.8809 26.1305C26.045 25.9665 26.2676 25.8743 26.4996 25.8743H28.2496C28.4817 25.8743 28.7043 25.9665 28.8684 26.1305C29.0324 26.2946 29.1246 26.5172 29.1246 26.7493V37.2493H29.5621C29.6782 37.2493 29.7894 37.2954 29.8715 37.3774C29.9535 37.4595 29.9996 37.5707 29.9996 37.6868C29.9996 37.8028 29.9535 37.9141 29.8715 37.9961C29.7894 38.0782 29.6782 38.1243 29.5621 38.1243H16.4371C16.3211 38.1243 16.2098 38.0782 16.1278 37.9961C16.0457 37.9141 15.9996 37.8028 15.9996 37.6868C15.9996 37.5707 16.0457 37.4595 16.1278 37.3774C16.2098 37.2954 16.3211 37.2493 16.4371 37.2493H16.8746V34.6243C16.8746 34.3922 16.9668 34.1696 17.1309 34.0055C17.295 33.8415 17.5176 33.7493 17.7496 33.7493H19.4996C19.7317 33.7493 19.9543 33.8415 20.1184 34.0055C20.2824 34.1696 20.3746 34.3922 20.3746 34.6243V37.2493H21.2496V31.1243C21.2496 30.8922 21.3418 30.6696 21.5059 30.5055C21.67 30.3415 21.8926 30.2493 22.1246 30.2493H23.8746C24.1067 30.2493 24.3293 30.3415 24.4934 30.5055C24.6574 30.6696 24.7496 30.8922 24.7496 31.1243V37.2493H25.6246V26.7493ZM26.4996 37.2493H28.2496V26.7493H26.4996V37.2493ZM23.8746 37.2493V31.1243H22.1246V37.2493H23.8746ZM19.4996 37.2493V34.6243H17.7496V37.2493H19.4996Z" fill="white"/>
</g>
</g>
<g clip-path="url(#clip2_405_2028)">
<rect width="138" height="48" transform="translate(38 8)" fill="white" fill-opacity="0.01"/>
<path d="M38.4 26L42.736 14.8H44.496L48.8 26H46.96L44.4 19.248C44.368 19.1733 44.304 18.992 44.208 18.704C44.1227 18.416 44.0213 18.096 43.904 17.744C43.7867 17.392 43.68 17.072 43.584 16.784C43.488 16.4853 43.424 16.2933 43.392 16.208L43.76 16.192C43.696 16.3733 43.616 16.6027 43.52 16.88C43.4347 17.1573 43.3387 17.4507 43.232 17.76C43.136 18.0693 43.04 18.3627 42.944 18.64C42.848 18.9067 42.768 19.1307 42.704 19.312L40.16 26H38.4ZM40.32 23.216L40.96 21.552H46.048L46.784 23.216H40.32ZM50.3551 26V17.6H52.0031V19.328L51.7151 19.52C51.8218 19.1467 52.0298 18.8053 52.3391 18.496C52.6485 18.176 53.0165 17.92 53.4431 17.728C53.8698 17.5253 54.3071 17.424 54.7551 17.424C55.3951 17.424 55.9285 17.552 56.3551 17.808C56.7818 18.0533 57.1018 18.432 57.3151 18.944C57.5285 19.456 57.6351 20.1013 57.6351 20.88V26H55.9871V20.992C55.9871 20.512 55.9231 20.1173 55.7951 19.808C55.6671 19.488 55.4698 19.2587 55.2031 19.12C54.9365 18.9707 54.6058 18.9067 54.2111 18.928C53.8911 18.928 53.5978 18.9813 53.3311 19.088C53.0645 19.184 52.8298 19.3227 52.6271 19.504C52.4351 19.6853 52.2805 19.8987 52.1631 20.144C52.0565 20.3787 52.0031 20.6347 52.0031 20.912V26H51.1871C51.0485 26 50.9098 26 50.7711 26C50.6325 26 50.4938 26 50.3551 26ZM63.1028 26.16C62.4094 26.16 61.7748 25.968 61.1988 25.584C60.6334 25.2 60.1801 24.6773 59.8388 24.016C59.4974 23.3547 59.3268 22.608 59.3268 21.776C59.3268 20.9333 59.4974 20.1867 59.8388 19.536C60.1908 18.8747 60.6601 18.3573 61.2468 17.984C61.8441 17.6107 62.5108 17.424 63.2468 17.424C63.6841 17.424 64.0841 17.488 64.4468 17.616C64.8094 17.744 65.1241 17.9253 65.3908 18.16C65.6681 18.384 65.8921 18.6453 66.0628 18.944C66.2441 19.2427 66.3561 19.5627 66.3988 19.904L66.0308 19.776V17.6H67.6948V26H66.0308V24L66.4148 23.888C66.3508 24.176 66.2174 24.4587 66.0148 24.736C65.8228 25.0027 65.5721 25.2427 65.2628 25.456C64.9641 25.6693 64.6281 25.84 64.2548 25.968C63.8921 26.096 63.5081 26.16 63.1028 26.16ZM63.5348 24.64C64.0361 24.64 64.4788 24.5173 64.8628 24.272C65.2468 24.0267 65.5454 23.6907 65.7588 23.264C65.9828 22.8267 66.0948 22.3307 66.0948 21.776C66.0948 21.232 65.9828 20.7467 65.7588 20.32C65.5454 19.8933 65.2468 19.5573 64.8628 19.312C64.4788 19.0667 64.0361 18.944 63.5348 18.944C63.0441 18.944 62.6068 19.0667 62.2228 19.312C61.8494 19.5573 61.5508 19.8933 61.3268 20.32C61.1134 20.7467 61.0068 21.232 61.0068 21.776C61.0068 22.3307 61.1134 22.8267 61.3268 23.264C61.5508 23.6907 61.8494 24.0267 62.2228 24.272C62.6068 24.5173 63.0441 24.64 63.5348 24.64ZM70.0278 26V14.16H71.6758V26H70.0278ZM75.185 29.68L76.881 25.76L76.897 27.072L72.705 17.6H74.625L77.249 23.776C77.3023 23.8827 77.3663 24.048 77.441 24.272C77.5157 24.4853 77.5797 24.6987 77.633 24.912L77.217 25.008C77.3023 24.784 77.3823 24.56 77.457 24.336C77.5423 24.112 77.6223 23.888 77.697 23.664L79.889 17.6H81.841L78.385 26L76.961 29.68H75.185ZM84.1139 26V15.456H85.7619V26H84.1139ZM82.3699 19.2V17.6H87.7139V19.2H82.3699ZM89.4865 26V17.6H91.1345V26H89.4865ZM90.2865 15.744C89.9345 15.744 89.6625 15.6533 89.4705 15.472C89.2785 15.2907 89.1825 15.0347 89.1825 14.704C89.1825 14.3947 89.2785 14.144 89.4705 13.952C89.6732 13.76 89.9452 13.664 90.2865 13.664C90.6385 13.664 90.9105 13.7547 91.1025 13.936C91.2945 14.1173 91.3905 14.3733 91.3905 14.704C91.3905 15.0133 91.2892 15.264 91.0865 15.456C90.8945 15.648 90.6278 15.744 90.2865 15.744ZM97.2356 26.16C96.457 26.16 95.7583 25.968 95.1396 25.584C94.5316 25.2 94.0463 24.6773 93.6836 24.016C93.3316 23.3547 93.1556 22.6133 93.1556 21.792C93.1556 20.9707 93.3316 20.2293 93.6836 19.568C94.0463 18.9067 94.5316 18.384 95.1396 18C95.7583 17.616 96.457 17.424 97.2356 17.424C97.9823 17.424 98.6596 17.5787 99.2676 17.888C99.8863 18.1867 100.356 18.5973 100.676 19.12L99.7636 20.24C99.593 19.9947 99.3743 19.7707 99.1076 19.568C98.841 19.3653 98.5583 19.2053 98.2596 19.088C97.961 18.9707 97.673 18.912 97.3956 18.912C96.8836 18.912 96.425 19.04 96.0196 19.296C95.625 19.5413 95.3103 19.8827 95.0756 20.32C94.841 20.7573 94.7236 21.248 94.7236 21.792C94.7236 22.336 94.8463 22.8267 95.0916 23.264C95.337 23.6907 95.6623 24.032 96.0676 24.288C96.473 24.544 96.921 24.672 97.4116 24.672C97.6996 24.672 97.977 24.624 98.2436 24.528C98.521 24.432 98.7876 24.288 99.0436 24.096C99.2996 23.904 99.5396 23.6693 99.7636 23.392L100.676 24.512C100.334 24.992 99.8436 25.3867 99.2036 25.696C98.5743 26.0053 97.9183 26.16 97.2356 26.16ZM105.03 26.16C104.326 26.16 103.691 26.0373 103.126 25.792C102.561 25.5467 102.091 25.184 101.718 24.704L102.838 23.744C103.158 24.1173 103.505 24.3893 103.878 24.56C104.262 24.72 104.694 24.8 105.174 24.8C105.366 24.8 105.542 24.7787 105.702 24.736C105.873 24.6827 106.017 24.608 106.134 24.512C106.262 24.416 106.358 24.304 106.422 24.176C106.486 24.0373 106.518 23.888 106.518 23.728C106.518 23.4507 106.417 23.2267 106.214 23.056C106.107 22.9813 105.937 22.9013 105.702 22.816C105.478 22.72 105.185 22.624 104.822 22.528C104.203 22.368 103.697 22.1867 103.302 21.984C102.907 21.7813 102.603 21.552 102.39 21.296C102.23 21.0933 102.113 20.8747 102.038 20.64C101.963 20.3947 101.926 20.128 101.926 19.84C101.926 19.488 102.001 19.168 102.15 18.88C102.31 18.5813 102.523 18.3253 102.79 18.112C103.067 17.888 103.387 17.7173 103.75 17.6C104.123 17.4827 104.518 17.424 104.934 17.424C105.329 17.424 105.718 17.4773 106.102 17.584C106.497 17.6907 106.859 17.8453 107.19 18.048C107.521 18.2507 107.798 18.4907 108.022 18.768L107.078 19.808C106.875 19.6053 106.651 19.4293 106.406 19.28C106.171 19.12 105.931 18.9973 105.686 18.912C105.441 18.8267 105.217 18.784 105.014 18.784C104.79 18.784 104.587 18.8053 104.406 18.848C104.225 18.8907 104.07 18.9547 103.942 19.04C103.825 19.1253 103.734 19.232 103.67 19.36C103.606 19.488 103.574 19.632 103.574 19.792C103.585 19.9307 103.617 20.064 103.67 20.192C103.734 20.3093 103.819 20.4107 103.926 20.496C104.043 20.5813 104.219 20.672 104.454 20.768C104.689 20.864 104.987 20.9547 105.35 21.04C105.883 21.1787 106.321 21.3333 106.662 21.504C107.014 21.664 107.291 21.8507 107.494 22.064C107.707 22.2667 107.857 22.5013 107.942 22.768C108.027 23.0347 108.07 23.3333 108.07 23.664C108.07 24.144 107.931 24.576 107.654 24.96C107.387 25.3333 107.025 25.6267 106.566 25.84C106.107 26.0533 105.595 26.16 105.03 26.16ZM122.419 26L120.963 24.448L120.707 24.16L117.939 21.072C117.672 20.7733 117.416 20.4693 117.171 20.16C116.925 19.84 116.707 19.5253 116.515 19.216C116.333 18.9067 116.184 18.608 116.067 18.32C115.96 18.0213 115.907 17.744 115.907 17.488C115.907 16.944 116.045 16.4587 116.323 16.032C116.611 15.5947 117 15.2533 117.491 15.008C117.992 14.7627 118.568 14.64 119.219 14.64C119.699 14.64 120.147 14.7307 120.563 14.912C120.979 15.0827 121.336 15.328 121.635 15.648C121.944 15.9573 122.168 16.32 122.307 16.736L121.059 17.536C120.856 17.0453 120.605 16.688 120.307 16.464C120.019 16.24 119.656 16.128 119.219 16.128C118.888 16.128 118.611 16.1813 118.387 16.288C118.163 16.384 117.992 16.528 117.875 16.72C117.757 16.912 117.699 17.152 117.699 17.44C117.699 17.6747 117.763 17.936 117.891 18.224C118.029 18.5013 118.2 18.784 118.403 19.072C118.605 19.36 118.813 19.6267 119.027 19.872C119.24 20.1173 119.427 20.3307 119.587 20.512L121.811 22.992L122.275 23.504L124.563 26H122.419ZM118.115 26.16C117.357 26.16 116.669 26 116.051 25.68C115.432 25.3493 114.936 24.9173 114.563 24.384C114.2 23.84 114.019 23.248 114.019 22.608C114.019 21.7653 114.248 21.0347 114.707 20.416C115.176 19.7973 115.859 19.3227 116.755 18.992L117.779 20.224C117.096 20.3733 116.589 20.624 116.259 20.976C115.928 21.3173 115.763 21.7813 115.763 22.368C115.763 22.816 115.869 23.2107 116.083 23.552C116.296 23.8933 116.6 24.16 116.995 24.352C117.4 24.544 117.88 24.64 118.435 24.64C118.915 24.64 119.352 24.5493 119.747 24.368C120.152 24.176 120.515 23.9093 120.835 23.568C121.155 23.2267 121.416 22.816 121.619 22.336C121.832 21.856 121.987 21.3227 122.083 20.736H123.555C123.469 21.3867 123.315 21.9893 123.091 22.544C122.877 23.0987 122.605 23.6 122.275 24.048C121.955 24.496 121.581 24.88 121.155 25.2C120.739 25.5093 120.275 25.7493 119.763 25.92C119.251 26.08 118.701 26.16 118.115 26.16ZM39.568 50V38.8H44.336C44.976 38.8 45.5627 38.96 46.096 39.28C46.64 39.5893 47.072 40.016 47.392 40.56C47.712 41.0933 47.872 41.696 47.872 42.368C47.872 42.976 47.712 43.5413 47.392 44.064C47.072 44.5867 46.6453 45.008 46.112 45.328C45.5787 45.6373 44.9867 45.792 44.336 45.792H41.296V50H39.568ZM46.224 50L43.376 44.944L45.152 44.544L48.32 50.016L46.224 50ZM41.296 44.128H44.496C44.8053 44.128 45.0827 44.0533 45.328 43.904C45.5733 43.744 45.7653 43.5307 45.904 43.264C46.0427 42.9867 46.112 42.6827 46.112 42.352C46.112 41.9787 46.0213 41.6533 45.84 41.376C45.6693 41.088 45.424 40.864 45.104 40.704C44.7947 40.544 44.4427 40.464 44.048 40.464H41.296V44.128ZM53.8845 50.16C53.0205 50.16 52.2525 49.9787 51.5805 49.616C50.9192 49.2427 50.3965 48.736 50.0125 48.096C49.6392 47.456 49.4525 46.72 49.4525 45.888C49.4525 45.2267 49.5592 44.624 49.7725 44.08C49.9858 43.536 50.2792 43.0667 50.6525 42.672C51.0365 42.2667 51.4898 41.9573 52.0125 41.744C52.5458 41.52 53.1218 41.408 53.7405 41.408C54.2845 41.408 54.7912 41.5147 55.2605 41.728C55.7298 41.9307 56.1352 42.2133 56.4765 42.576C56.8285 42.9387 57.0952 43.3707 57.2765 43.872C57.4685 44.3627 57.5592 44.9013 57.5485 45.488L57.5325 46.192H50.6685L50.3005 44.88H56.1085L55.8685 45.152V44.768C55.8365 44.416 55.7192 44.1013 55.5165 43.824C55.3138 43.5467 55.0578 43.328 54.7485 43.168C54.4392 43.008 54.1032 42.928 53.7405 42.928C53.1645 42.928 52.6792 43.04 52.2845 43.264C51.8898 43.4773 51.5912 43.7973 51.3885 44.224C51.1858 44.64 51.0845 45.1573 51.0845 45.776C51.0845 46.3627 51.2072 46.8747 51.4525 47.312C51.6978 47.7387 52.0445 48.0693 52.4925 48.304C52.9405 48.5387 53.4578 48.656 54.0445 48.656C54.4605 48.656 54.8445 48.5867 55.1965 48.448C55.5592 48.3093 55.9485 48.0587 56.3645 47.696L57.1965 48.864C56.9405 49.12 56.6258 49.344 56.2525 49.536C55.8898 49.728 55.5005 49.8827 55.0845 50C54.6792 50.1067 54.2792 50.16 53.8845 50.16ZM59.3395 53.52V41.6H61.0035V43.52L60.7475 43.376C60.8115 43.056 60.9928 42.752 61.2915 42.464C61.5902 42.1653 61.9528 41.9253 62.3795 41.744C62.8168 41.552 63.2648 41.456 63.7235 41.456C64.4808 41.456 65.1528 41.6427 65.7395 42.016C66.3262 42.3893 66.7902 42.9013 67.1315 43.552C67.4728 44.2027 67.6435 44.9493 67.6435 45.792C67.6435 46.624 67.4728 47.3707 67.1315 48.032C66.8008 48.6827 66.3422 49.2 65.7555 49.584C65.1688 49.9573 64.5075 50.144 63.7715 50.144C63.2808 50.144 62.8062 50.048 62.3475 49.856C61.8888 49.6533 61.4995 49.3973 61.1795 49.088C60.8595 48.7787 60.6622 48.4587 60.5875 48.128L61.0035 47.904V53.52H59.3395ZM63.4995 48.624C63.9902 48.624 64.4275 48.5013 64.8115 48.256C65.1955 48.0107 65.4995 47.6747 65.7235 47.248C65.9475 46.8213 66.0595 46.336 66.0595 45.792C66.0595 45.248 65.9475 44.768 65.7235 44.352C65.5102 43.9253 65.2115 43.5893 64.8275 43.344C64.4435 43.0987 64.0008 42.976 63.4995 42.976C62.9982 42.976 62.5555 43.0987 62.1715 43.344C61.7875 43.5787 61.4835 43.9093 61.2595 44.336C61.0355 44.7627 60.9235 45.248 60.9235 45.792C60.9235 46.336 61.0355 46.8213 61.2595 47.248C61.4835 47.6747 61.7875 48.0107 62.1715 48.256C62.5555 48.5013 62.9982 48.624 63.4995 48.624ZM73.2093 50.16C72.3879 50.16 71.6519 49.9733 71.0013 49.6C70.3613 49.216 69.8546 48.6987 69.4813 48.048C69.1079 47.3867 68.9213 46.6347 68.9213 45.792C68.9213 44.9493 69.1079 44.2027 69.4813 43.552C69.8546 42.8907 70.3613 42.3733 71.0013 42C71.6519 41.616 72.3879 41.424 73.2093 41.424C74.0199 41.424 74.7453 41.616 75.3853 42C76.0359 42.3733 76.5479 42.8907 76.9213 43.552C77.2946 44.2027 77.4813 44.9493 77.4813 45.792C77.4813 46.6347 77.2946 47.3867 76.9213 48.048C76.5479 48.6987 76.0359 49.216 75.3853 49.6C74.7453 49.9733 74.0199 50.16 73.2093 50.16ZM73.2093 48.656C73.7106 48.656 74.1586 48.5333 74.5533 48.288C74.9479 48.032 75.2573 47.6907 75.4813 47.264C75.7053 46.8267 75.8119 46.336 75.8013 45.792C75.8119 45.2373 75.7053 44.7467 75.4813 44.32C75.2573 43.8827 74.9479 43.5413 74.5533 43.296C74.1586 43.0507 73.7106 42.928 73.2093 42.928C72.7079 42.928 72.2546 43.056 71.8493 43.312C71.4546 43.5573 71.1453 43.8987 70.9213 44.336C70.6973 44.7627 70.5906 45.248 70.6013 45.792C70.5906 46.336 70.6973 46.8267 70.9213 47.264C71.1453 47.6907 71.4546 48.032 71.8493 48.288C72.2546 48.5333 72.7079 48.656 73.2093 48.656ZM79.277 50V41.6H80.941V44.24L80.781 43.6C80.8983 43.1947 81.0957 42.8267 81.373 42.496C81.661 42.1653 81.9863 41.904 82.349 41.712C82.7223 41.52 83.1063 41.424 83.501 41.424C83.6823 41.424 83.853 41.44 84.013 41.472C84.1837 41.504 84.317 41.5413 84.413 41.584L83.981 43.376C83.853 43.3227 83.709 43.28 83.549 43.248C83.3997 43.2053 83.2503 43.184 83.101 43.184C82.813 43.184 82.5357 43.2427 82.269 43.36C82.013 43.4667 81.7837 43.6213 81.581 43.824C81.389 44.016 81.2343 44.2453 81.117 44.512C80.9997 44.768 80.941 45.0507 80.941 45.36V50H79.277ZM87.0826 50V39.456H88.7306V50H87.0826ZM85.3386 43.2V41.6H90.6826V43.2H85.3386ZM95.2958 50.16C94.5918 50.16 93.9571 50.0373 93.3918 49.792C92.8264 49.5467 92.3571 49.184 91.9838 48.704L93.1038 47.744C93.4238 48.1173 93.7704 48.3893 94.1438 48.56C94.5278 48.72 94.9598 48.8 95.4398 48.8C95.6318 48.8 95.8078 48.7787 95.9678 48.736C96.1384 48.6827 96.2824 48.608 96.3998 48.512C96.5278 48.416 96.6238 48.304 96.6878 48.176C96.7518 48.0373 96.7838 47.888 96.7838 47.728C96.7838 47.4507 96.6824 47.2267 96.4798 47.056C96.3731 46.9813 96.2024 46.9013 95.9678 46.816C95.7438 46.72 95.4504 46.624 95.0878 46.528C94.4691 46.368 93.9624 46.1867 93.5678 45.984C93.1731 45.7813 92.8691 45.552 92.6558 45.296C92.4958 45.0933 92.3784 44.8747 92.3038 44.64C92.2291 44.3947 92.1918 44.128 92.1918 43.84C92.1918 43.488 92.2664 43.168 92.4158 42.88C92.5758 42.5813 92.7891 42.3253 93.0558 42.112C93.3331 41.888 93.6531 41.7173 94.0158 41.6C94.3891 41.4827 94.7838 41.424 95.1998 41.424C95.5944 41.424 95.9838 41.4773 96.3678 41.584C96.7624 41.6907 97.1251 41.8453 97.4558 42.048C97.7864 42.2507 98.0638 42.4907 98.2878 42.768L97.3438 43.808C97.1411 43.6053 96.9171 43.4293 96.6718 43.28C96.4371 43.12 96.1971 42.9973 95.9518 42.912C95.7064 42.8267 95.4824 42.784 95.2798 42.784C95.0558 42.784 94.8531 42.8053 94.6718 42.848C94.4904 42.8907 94.3358 42.9547 94.2078 43.04C94.0904 43.1253 93.9998 43.232 93.9358 43.36C93.8718 43.488 93.8398 43.632 93.8398 43.792C93.8504 43.9307 93.8824 44.064 93.9358 44.192C93.9998 44.3093 94.0851 44.4107 94.1918 44.496C94.3091 44.5813 94.4851 44.672 94.7198 44.768C94.9544 44.864 95.2531 44.9547 95.6158 45.04C96.1491 45.1787 96.5864 45.3333 96.9278 45.504C97.2798 45.664 97.5571 45.8507 97.7598 46.064C97.9731 46.2667 98.1224 46.5013 98.2078 46.768C98.2931 47.0347 98.3358 47.3333 98.3358 47.664C98.3358 48.144 98.1971 48.576 97.9198 48.96C97.6531 49.3333 97.2904 49.6267 96.8318 49.84C96.3731 50.0533 95.8611 50.16 95.2958 50.16Z" fill="white"/>
</g>
<defs>
<clipPath id="clip0_405_2028">
<rect width="14" height="14" fill="white" transform="translate(16 25)"/>
</clipPath>
<clipPath id="clip1_405_2028">
<rect width="14" height="14" fill="white" transform="translate(16 25)"/>
</clipPath>
<clipPath id="clip2_405_2028">
<rect width="138" height="48" fill="white" transform="translate(38 8)"/>
</clipPath>
</defs>
</svg>
