<svg width="14" height="14" viewBox="0 0 14 14" fill="none" xmlns="http://www.w3.org/2000/svg">
<g clip-path="url(#clip0_405_2004)">
<path d="M13.1246 12.2493C13.1246 12.2493 13.9996 12.2493 13.9996 11.3743C13.9996 10.4993 13.1246 7.87427 9.62463 7.87427C6.12463 7.87427 5.24963 10.4993 5.24963 11.3743C5.24963 12.2493 6.12463 12.2493 6.12463 12.2493H13.1246ZM6.14388 11.3743C6.13742 11.3734 6.131 11.3722 6.12463 11.3708C6.12551 11.1398 6.27076 10.4695 6.78963 9.86577C7.27263 9.29964 8.12138 8.74927 9.62463 8.74927C11.127 8.74927 11.9758 9.30052 12.4596 9.86577C12.9785 10.4695 13.1229 11.1406 13.1246 11.3708L13.1176 11.3725C13.1136 11.3732 13.1095 11.3738 13.1054 11.3743H6.14388V11.3743ZM9.62463 6.12427C10.0888 6.12427 10.5339 5.93989 10.8621 5.6117C11.1903 5.28352 11.3746 4.8384 11.3746 4.37427C11.3746 3.91014 11.1903 3.46502 10.8621 3.13683C10.5339 2.80864 10.0888 2.62427 9.62463 2.62427C9.1605 2.62427 8.71539 2.80864 8.3872 3.13683C8.05901 3.46502 7.87463 3.91014 7.87463 4.37427C7.87463 4.8384 8.05901 5.28352 8.3872 5.6117C8.71539 5.93989 9.1605 6.12427 9.62463 6.12427ZM12.2496 4.37427C12.2496 4.71899 12.1817 5.06033 12.0498 5.37881C11.9179 5.69729 11.7245 5.98667 11.4808 6.23042C11.237 6.47418 10.9477 6.66753 10.6292 6.79945C10.3107 6.93137 9.96935 6.99927 9.62463 6.99927C9.27991 6.99927 8.93857 6.93137 8.62009 6.79945C8.30161 6.66753 8.01223 6.47418 7.76848 6.23042C7.52472 5.98667 7.33137 5.69729 7.19945 5.37881C7.06753 5.06033 6.99963 4.71899 6.99963 4.37427C6.99963 3.67807 7.2762 3.0104 7.76848 2.51811C8.26076 2.02583 8.92844 1.74927 9.62463 1.74927C10.3208 1.74927 10.9885 2.02583 11.4808 2.51811C11.9731 3.0104 12.2496 3.67807 12.2496 4.37427V4.37427ZM6.06863 8.11927C5.71862 8.00905 5.35781 7.9366 4.99238 7.90314C4.78705 7.88362 4.58089 7.87398 4.37463 7.87427C0.874634 7.87427 -0.000366211 10.4993 -0.000366211 11.3743C-0.000366211 11.9579 0.291009 12.2493 0.874634 12.2493H4.56363C4.43392 11.9761 4.36923 11.6766 4.37463 11.3743C4.37463 10.4905 4.70451 9.58752 5.32838 8.83327C5.54101 8.57602 5.78863 8.33539 6.06863 8.11927ZM4.30463 8.74927C3.78677 9.52738 3.50702 10.4396 3.49963 11.3743H0.874634C0.874634 11.1468 1.01813 10.473 1.53963 9.86577C2.01651 9.30927 2.84513 8.76677 4.30463 8.75014V8.74927ZM1.31213 4.81177C1.31213 4.11557 1.5887 3.4479 2.08098 2.95561C2.57326 2.46333 3.24094 2.18677 3.93713 2.18677C4.63333 2.18677 5.30101 2.46333 5.79329 2.95561C6.28557 3.4479 6.56213 4.11557 6.56213 4.81177C6.56213 5.50796 6.28557 6.17564 5.79329 6.66792C5.30101 7.16021 4.63333 7.43677 3.93713 7.43677C3.24094 7.43677 2.57326 7.16021 2.08098 6.66792C1.5887 6.17564 1.31213 5.50796 1.31213 4.81177V4.81177ZM3.93713 3.06177C3.473 3.06177 3.02789 3.24614 2.6997 3.57433C2.37151 3.90252 2.18713 4.34764 2.18713 4.81177C2.18713 5.2759 2.37151 5.72102 2.6997 6.0492C3.02789 6.37739 3.473 6.56177 3.93713 6.56177C4.40126 6.56177 4.84638 6.37739 5.17457 6.0492C5.50276 5.72102 5.68713 5.2759 5.68713 4.81177C5.68713 4.34764 5.50276 3.90252 5.17457 3.57433C4.84638 3.24614 4.40126 3.06177 3.93713 3.06177Z" fill="white"/>
</g>
<defs>
<clipPath id="clip0_405_2004">
<rect width="14" height="14" fill="white"/>
</clipPath>
</defs>
</svg>
