<svg width="30" height="26" viewBox="0 0 30 26" fill="none" xmlns="http://www.w3.org/2000/svg">
<rect width="30" height="25" transform="translate(0 0.5)" fill="white" fill-opacity="0.01"/>
<rect y="3" width="30" height="20" rx="10" fill="#FF2929"/>
<path d="M10.8816 17.412V10.596L11.3256 11.616L9.52561 12.468L9.17761 10.644L11.5656 9.48H12.8856V17.412H10.8816ZM9.34561 18V16.2H14.4576V18H9.34561ZM15.7842 18L15.3882 17.016L17.8362 14.34C17.9722 14.188 18.1202 14.016 18.2802 13.824C18.4402 13.632 18.5962 13.436 18.7482 13.236C18.9002 13.028 19.0202 12.828 19.1082 12.636C19.2042 12.444 19.2522 12.268 19.2522 12.108C19.2522 11.948 19.2162 11.808 19.1442 11.688C19.0722 11.568 18.9682 11.476 18.8322 11.412C18.6962 11.34 18.5242 11.304 18.3162 11.304C18.1322 11.304 17.9562 11.352 17.7882 11.448C17.6202 11.536 17.4602 11.676 17.3082 11.868C17.1642 12.06 17.0282 12.296 16.9002 12.576L15.3882 11.76C15.5562 11.296 15.7922 10.888 16.0962 10.536C16.4082 10.176 16.7722 9.9 17.1882 9.708C17.6042 9.508 18.0482 9.408 18.5202 9.408C19.0162 9.416 19.4642 9.524 19.8642 9.732C20.2642 9.932 20.5802 10.216 20.8122 10.584C21.0522 10.944 21.1722 11.368 21.1722 11.856C21.1722 12.024 21.1522 12.2 21.1122 12.384C21.0722 12.568 21.0122 12.76 20.9322 12.96C20.8522 13.152 20.7442 13.36 20.6082 13.584C20.4802 13.8 20.3242 14.028 20.1402 14.268C19.9562 14.508 19.7402 14.764 19.4922 15.036L17.5842 17.112L17.3442 16.2H21.5442V18H15.7842Z" fill="white"/>
</svg>
