<svg width="18" height="18" viewBox="0 0 18 18" fill="none" xmlns="http://www.w3.org/2000/svg">
<g clip-path="url(#clip0_405_3497)">
<rect width="18" height="18" fill="white" fill-opacity="0.01"/>
<g clip-path="url(#clip1_405_3497)">
<path d="M3.93726 -0.000732422C4.08644 -0.000732422 4.22951 0.0585308 4.335 0.16402C4.44049 0.269509 4.49976 0.412583 4.49976 0.561768V1.12427H13.4998V0.561768C13.4998 0.412583 13.559 0.269509 13.6645 0.16402C13.77 0.0585308 13.9131 -0.000732422 14.0623 -0.000732422C14.2114 -0.000732422 14.3545 0.0585308 14.46 0.16402C14.5655 0.269509 14.6248 0.412583 14.6248 0.561768V1.12427H15.7498C16.3465 1.12427 16.9188 1.36132 17.3407 1.78328C17.7627 2.20523 17.9998 2.77753 17.9998 3.37427V15.7493C17.9998 16.346 17.7627 16.9183 17.3407 17.3403C16.9188 17.7622 16.3465 17.9993 15.7498 17.9993H2.24976C1.65302 17.9993 1.08072 17.7622 0.658766 17.3403C0.236809 16.9183 -0.000244141 16.346 -0.000244141 15.7493V3.37427C-0.000244141 2.77753 0.236809 2.20523 0.658766 1.78328C1.08072 1.36132 1.65302 1.12427 2.24976 1.12427H3.37476V0.561768C3.37476 0.412583 3.43402 0.269509 3.53951 0.16402C3.645 0.0585308 3.78807 -0.000732422 3.93726 -0.000732422V-0.000732422ZM1.12476 4.49927V15.7493C1.12476 16.0476 1.24328 16.3338 1.45426 16.5448C1.66524 16.7557 1.95139 16.8743 2.24976 16.8743H15.7498C16.0481 16.8743 16.3343 16.7557 16.5453 16.5448C16.7562 16.3338 16.8748 16.0476 16.8748 15.7493V4.49927H1.12476Z" fill="white"/>
</g>
</g>
<defs>
<clipPath id="clip0_405_3497">
<rect width="18" height="18" fill="white"/>
</clipPath>
<clipPath id="clip1_405_3497">
<rect width="18" height="18" fill="white"/>
</clipPath>
</defs>
</svg>
