<svg width="14" height="14" viewBox="0 0 14 14" fill="none" xmlns="http://www.w3.org/2000/svg">
<g clip-path="url(#clip0_405_2013)">
<rect width="14" height="14" fill="white" fill-opacity="0.01"/>
<g clip-path="url(#clip1_405_2013)">
<path d="M9.62463 6.56177C9.62463 6.44574 9.67073 6.33446 9.75277 6.25241C9.83482 6.17036 9.9461 6.12427 10.0621 6.12427H10.9371C11.0532 6.12427 11.1644 6.17036 11.2465 6.25241C11.3285 6.33446 11.3746 6.44574 11.3746 6.56177V7.43677C11.3746 7.5528 11.3285 7.66408 11.2465 7.74613C11.1644 7.82817 11.0532 7.87427 10.9371 7.87427H10.0621C9.9461 7.87427 9.83482 7.82817 9.75277 7.74613C9.67073 7.66408 9.62463 7.5528 9.62463 7.43677V6.56177Z" fill="white"/>
<path d="M3.06213 -0.000732422C3.17817 -0.000732422 3.28945 0.0453612 3.37149 0.127408C3.45354 0.209456 3.49963 0.320735 3.49963 0.436768V0.874268H10.4996V0.436768C10.4996 0.320735 10.5457 0.209456 10.6278 0.127408C10.7098 0.0453612 10.8211 -0.000732422 10.9371 -0.000732422C11.0532 -0.000732422 11.1644 0.0453612 11.2465 0.127408C11.3285 0.209456 11.3746 0.320735 11.3746 0.436768V0.874268H12.2496C12.7138 0.874268 13.1589 1.05864 13.4871 1.38683C13.8153 1.71502 13.9996 2.16014 13.9996 2.62427V12.2493C13.9996 12.7134 13.8153 13.1585 13.4871 13.4867C13.1589 13.8149 12.7138 13.9993 12.2496 13.9993H1.74963C1.2855 13.9993 0.840386 13.8149 0.512197 13.4867C0.184008 13.1585 -0.000366211 12.7134 -0.000366211 12.2493V2.62427C-0.000366211 2.16014 0.184008 1.71502 0.512197 1.38683C0.840386 1.05864 1.2855 0.874268 1.74963 0.874268H2.62463V0.436768C2.62463 0.320735 2.67073 0.209456 2.75277 0.127408C2.83482 0.0453612 2.9461 -0.000732422 3.06213 -0.000732422ZM1.74963 1.74927C1.51757 1.74927 1.29501 1.84145 1.13092 2.00555C0.966821 2.16964 0.874634 2.3922 0.874634 2.62427V12.2493C0.874634 12.4813 0.966821 12.7039 1.13092 12.868C1.29501 13.0321 1.51757 13.1243 1.74963 13.1243H12.2496C12.4817 13.1243 12.7043 13.0321 12.8684 12.868C13.0324 12.7039 13.1246 12.4813 13.1246 12.2493V2.62427C13.1246 2.3922 13.0324 2.16964 12.8684 2.00555C12.7043 1.84145 12.4817 1.74927 12.2496 1.74927H1.74963Z" fill="white"/>
<path d="M2.18713 3.49927C2.18713 3.38324 2.23323 3.27196 2.31527 3.18991C2.39732 3.10786 2.5086 3.06177 2.62463 3.06177H11.3746C11.4907 3.06177 11.6019 3.10786 11.684 3.18991C11.766 3.27196 11.8121 3.38324 11.8121 3.49927V4.37427C11.8121 4.4903 11.766 4.60158 11.684 4.68363C11.6019 4.76567 11.4907 4.81177 11.3746 4.81177H2.62463C2.5086 4.81177 2.39732 4.76567 2.31527 4.68363C2.23323 4.60158 2.18713 4.4903 2.18713 4.37427V3.49927Z" fill="white"/>
</g>
</g>
<defs>
<clipPath id="clip0_405_2013">
<rect width="14" height="14" fill="white"/>
</clipPath>
<clipPath id="clip1_405_2013">
<rect width="14" height="14" fill="white"/>
</clipPath>
</defs>
</svg>
