<svg width="16" height="16" viewBox="0 0 16 16" fill="none" xmlns="http://www.w3.org/2000/svg">
<g clip-path="url(#clip0_405_8612)">
<rect width="16" height="16" transform="translate(0 0.000244141)" fill="white" fill-opacity="0.01"/>
<path d="M7.24677 11.1395L2.45077 5.65751C1.88477 5.01251 2.34477 3.99951 3.20377 3.99951H12.7958C12.988 3.99935 13.1762 4.0546 13.3379 4.15865C13.4995 4.26271 13.6278 4.41115 13.7072 4.5862C13.7867 4.76126 13.814 4.95551 13.7859 5.14569C13.7578 5.33587 13.6755 5.51392 13.5488 5.65851L8.75277 11.1385C8.65891 11.2459 8.54315 11.332 8.41328 11.391C8.2834 11.45 8.14241 11.4805 7.99977 11.4805C7.85712 11.4805 7.71613 11.45 7.58626 11.391C7.45638 11.332 7.34063 11.2459 7.24677 11.1385V11.1395Z" fill="white"/>
</g>
<defs>
<clipPath id="clip0_405_8612">
<rect width="16" height="16" fill="white" transform="translate(0 0.000244141)"/>
</clipPath>
</defs>
</svg>
