<svg width="16" height="16" viewBox="0 0 16 16" fill="none" xmlns="http://www.w3.org/2000/svg">
<g clip-path="url(#clip0_405_5172)">
<rect width="16" height="16" transform="translate(0 0.000244141)" fill="white" fill-opacity="0.01"/>
<path fill-rule="evenodd" clip-rule="evenodd" d="M4.64811 1.64738C4.69456 1.60082 4.74974 1.56388 4.81048 1.53867C4.87123 1.51346 4.93635 1.50049 5.00211 1.50049C5.06788 1.50049 5.133 1.51346 5.19375 1.53867C5.25449 1.56388 5.30967 1.60082 5.35611 1.64738L11.3561 7.64738C11.4027 7.69383 11.4396 7.749 11.4648 7.80975C11.49 7.87049 11.503 7.93561 11.503 8.00138C11.503 8.06715 11.49 8.13227 11.4648 8.19302C11.4396 8.25376 11.4027 8.30894 11.3561 8.35538L5.35611 14.3554C5.26223 14.4493 5.13489 14.502 5.00211 14.502C4.86934 14.502 4.742 14.4493 4.64811 14.3554C4.55423 14.2615 4.50148 14.1342 4.50148 14.0014C4.50148 13.8686 4.55423 13.7413 4.64811 13.6474L10.2951 8.00138L4.64811 2.35538C4.60155 2.30894 4.56461 2.25376 4.5394 2.19302C4.5142 2.13227 4.50122 2.06715 4.50122 2.00138C4.50122 1.93561 4.5142 1.87049 4.5394 1.80975C4.56461 1.749 4.60155 1.69383 4.64811 1.64738Z" fill="white"/>
</g>
<defs>
<clipPath id="clip0_405_5172">
<rect width="16" height="16" fill="white" transform="translate(0 0.000244141)"/>
</clipPath>
</defs>
</svg>
