<svg width="16" height="16" viewBox="0 0 16 16" fill="none" xmlns="http://www.w3.org/2000/svg">
<g clip-path="url(#clip0_405_5240)">
<rect width="16" height="16" transform="translate(0 0.000244141)" fill="white" fill-opacity="0.01"/>
<g clip-path="url(#clip1_405_5240)">
<path d="M11.7417 10.3434C12.71 9.02206 13.1437 7.38386 12.956 5.75652C12.7683 4.12918 11.9731 2.63271 10.7294 1.5665C9.48579 0.500289 7.88543 -0.0570284 6.24851 0.00604479C4.6116 0.0691179 3.05886 0.74793 1.90095 1.90668C0.743029 3.06542 0.0653277 4.61864 0.00342583 6.2556C-0.058476 7.89256 0.499986 9.49253 1.56708 10.7354C2.63418 11.9783 4.13122 12.7724 5.7587 12.959C7.38617 13.1455 9.02406 12.7106 10.3447 11.7414H10.3437C10.3737 11.7814 10.4057 11.8194 10.4417 11.8564L14.2917 15.7064C14.4792 15.894 14.7336 15.9995 14.9988 15.9996C15.2641 15.9997 15.5185 15.8944 15.7062 15.7069C15.8938 15.5194 15.9993 15.265 15.9994 14.9997C15.9995 14.7345 15.8942 14.48 15.7067 14.2924L11.8567 10.4424C11.8209 10.4062 11.7825 10.3727 11.7417 10.3424V10.3434ZM11.9997 6.49937C11.9997 7.22164 11.8574 7.93684 11.581 8.60413C11.3046 9.27142 10.8995 9.87773 10.3888 10.3885C9.87804 10.8992 9.27173 11.3043 8.60444 11.5807C7.93715 11.8571 7.22195 11.9994 6.49968 11.9994C5.77741 11.9994 5.06221 11.8571 4.39492 11.5807C3.72763 11.3043 3.12131 10.8992 2.61059 10.3885C2.09987 9.87773 1.69474 9.27142 1.41834 8.60413C1.14194 7.93684 0.999677 7.22164 0.999677 6.49937C0.999677 5.04068 1.57914 3.64173 2.61059 2.61028C3.64204 1.57883 5.04099 0.999368 6.49968 0.999368C7.95837 0.999368 9.35731 1.57883 10.3888 2.61028C11.4202 3.64173 11.9997 5.04068 11.9997 6.49937Z" fill="white"/>
</g>
</g>
<defs>
<clipPath id="clip0_405_5240">
<rect width="16" height="16" fill="white" transform="translate(0 0.000244141)"/>
</clipPath>
<clipPath id="clip1_405_5240">
<rect width="16" height="16" fill="white" transform="translate(0 0.000244141)"/>
</clipPath>
</defs>
</svg>
