<svg width="14" height="14" viewBox="0 0 14 14" fill="none" xmlns="http://www.w3.org/2000/svg">
<path d="M8.59917 0.63086C8.65666 0.630757 8.71361 0.641987 8.76676 0.663907C8.81991 0.685828 8.86821 0.718008 8.90892 0.75861L13.2402 5.08986C13.3222 5.1719 13.3683 5.28316 13.3683 5.39917C13.3683 5.51518 13.3222 5.62644 13.2402 5.70849C12.8202 6.12849 12.3022 6.22299 11.925 6.22299C11.7702 6.22299 11.6319 6.20724 11.5225 6.18886L8.78029 8.93111C8.85248 9.22197 8.89932 9.51854 8.92029 9.81749C8.96054 10.4317 8.89229 11.2936 8.29029 11.8956C8.20825 11.9776 8.09699 12.0237 7.98098 12.0237C7.86497 12.0237 7.75371 11.9776 7.67167 11.8956L5.19629 9.42111L2.41204 12.2054C2.24142 12.376 1.34542 12.9946 1.17479 12.824C1.00417 12.6534 1.62279 11.7565 1.79342 11.5867L4.57767 8.80249L2.10317 6.32711C2.02115 6.24507 1.97507 6.13381 1.97507 6.0178C1.97507 5.90179 2.02115 5.79053 2.10317 5.70849C2.70517 5.10649 3.56704 5.03736 4.18129 5.07849C4.48024 5.09943 4.77681 5.14628 5.06767 5.21849L7.80992 2.47711C7.78703 2.34386 7.77532 2.20893 7.77492 2.07374C7.77492 1.69749 7.86942 1.17949 8.29029 0.75861C8.37229 0.676825 8.48336 0.630885 8.59917 0.63086V0.63086ZM8.70592 2.47886V2.47711V2.47886ZM8.70592 2.47711V2.47886C8.73119 2.55583 8.73459 2.63831 8.71574 2.7171C8.69689 2.79589 8.65653 2.8679 8.59917 2.92511L5.50604 6.01736C5.44857 6.07459 5.37632 6.11471 5.29737 6.13325C5.21841 6.15179 5.13586 6.14802 5.05892 6.12236H5.05717L5.04492 6.11886C4.96167 6.09392 4.87763 6.07174 4.79292 6.05236C4.5728 6.00101 4.34899 5.96708 4.12354 5.95086C3.75429 5.92636 3.39204 5.95786 3.09542 6.08211L7.91667 10.9025C8.04004 10.605 8.07154 10.2436 8.04704 9.87436C8.02475 9.56175 7.96842 9.2525 7.87904 8.95211L7.87554 8.94074V8.93986C7.84971 8.8628 7.84584 8.78007 7.86439 8.70094C7.88294 8.62181 7.92316 8.54941 7.98054 8.49186L11.0745 5.39874C11.1341 5.33879 11.2098 5.29739 11.2924 5.27953C11.375 5.26167 11.461 5.26813 11.54 5.29811L11.624 5.31736C11.7002 5.33224 11.806 5.34711 11.925 5.34711C12.0248 5.34711 12.1263 5.33749 12.2252 5.31211L8.68579 1.77361C8.66042 1.87249 8.65079 1.97486 8.65079 2.07374C8.65122 2.2097 8.66946 2.34501 8.70504 2.47624L8.70592 2.47711Z" fill="white"/>
</svg>
