<svg width="17" height="16" viewBox="0 0 17 16" fill="none" xmlns="http://www.w3.org/2000/svg">
<g clip-path="url(#clip0_405_5195)">
<rect width="16" height="16" transform="translate(0.399902 0.000244141)" fill="white" fill-opacity="0.01"/>
<path fill-rule="evenodd" clip-rule="evenodd" d="M8.39956 11.9994C8.53217 11.9994 8.65934 11.9468 8.75311 11.853C8.84688 11.7592 8.89956 11.632 8.89956 11.4994V5.70643L11.0456 7.85343C11.092 7.89992 11.1472 7.93679 11.208 7.96195C11.2687 7.98711 11.3338 8.00006 11.3996 8.00006C11.4653 8.00006 11.5304 7.98711 11.5911 7.96195C11.6519 7.93679 11.7071 7.89992 11.7536 7.85343C11.8 7.80694 11.8369 7.75175 11.8621 7.69101C11.8872 7.63027 11.9002 7.56517 11.9002 7.49943C11.9002 7.43369 11.8872 7.36858 11.8621 7.30785C11.8369 7.24711 11.8 7.19192 11.7536 7.14543L8.75356 4.14543C8.70711 4.09887 8.65194 4.06192 8.59119 4.03672C8.53045 4.01151 8.46532 3.99854 8.39956 3.99854C8.33379 3.99854 8.26867 4.01151 8.20792 4.03672C8.14718 4.06192 8.092 4.09887 8.04556 4.14543L5.04556 7.14543C4.95167 7.23932 4.89893 7.36665 4.89893 7.49943C4.89893 7.6322 4.95167 7.75954 5.04556 7.85343C5.13944 7.94732 5.26678 8.00006 5.39956 8.00006C5.53233 8.00006 5.65967 7.94732 5.75356 7.85343L7.89956 5.70643V11.4994C7.89956 11.632 7.95224 11.7592 8.046 11.853C8.13977 11.9468 8.26695 11.9994 8.39956 11.9994Z" fill="#75B798"/>
</g>
<defs>
<clipPath id="clip0_405_5195">
<rect width="16" height="16" fill="white" transform="translate(0.399902 0.000244141)"/>
</clipPath>
</defs>
</svg>
